Coordinates
version=1
nRows=21
nColumns=38
inDegrees=no

Units are S.I. units (second, meters, Newtons, ...)
If the header above contains a line with 'inDegrees', this indicates whether rotational values are in degrees (yes) or radians (no).

endheader
time	pelvis_tilt	pelvis_list	pelvis_rotation	pelvis_tx	pelvis_ty	pelvis_tz	hip_flexion_r	hip_adduction_r	hip_rotation_r	knee_angle_r	ankle_angle_r	subtalar_angle_r	mtp_angle_r	hip_flexion_l	hip_adduction_l	hip_rotation_l	knee_angle_l	ankle_angle_l	subtalar_angle_l	mtp_angle_l	lumbar_extension	lumbar_bending	lumbar_rotation	arm_flex_r	arm_add_r	arm_rot_r	elbow_flex_r	pro_sup_r	wrist_flex_r	wrist_dev_r	arm_flex_l	arm_add_l	arm_rot_l	elbow_flex_l	pro_sup_l	wrist_flex_l	wrist_dev_l
3.83	-0.820778	1.46657	2.35935	0.713143	0.631222	1.00484	-0.153834	-0.10558	-0.0902247	0.551063	-0.130159	0	0	0.393843	0.0959407	-0.1689	0.397302	-0.38914	0	0	-0.241166	-0.135454	0.0730641	1.01769	-0.484527	0.840632	1.31221	1.5708	0	0	0.912114	-0.32784	0.696225	1.21884	1.5708	0	0
3.84	-0.802001	1.46643	2.34053	0.711642	0.640734	1.00578	-0.147487	-0.106694	-0.0771174	0.575089	-0.14952	0	0	0.385619	0.0959115	-0.172776	0.398312	-0.381945	0	0	-0.236032	-0.130367	0.0667504	1.01532	-0.478668	0.84714	1.30883	1.5708	0	0	0.895525	-0.333036	0.684531	1.22836	1.5708	0	0
3.85	-0.780063	1.46589	2.31818	0.710172	0.650087	1.00685	-0.138064	-0.107637	-0.0624112	0.602254	-0.17113	0	0	0.376849	0.0958243	-0.177325	0.396917	-0.375915	0	0	-0.230753	-0.124825	0.0598515	1.01409	-0.47157	0.855227	1.30434	1.5708	0	0	0.878413	-0.33902	0.672075	1.23807	1.5708	0	0
3.86	-0.759542	1.46509	2.29724	0.708744	0.659264	1.00804	-0.126222	-0.108469	-0.0470552	0.632344	-0.194982	0	0	0.367329	0.0959581	-0.181548	0.393761	-0.371088	0	0	-0.225777	-0.119439	0.0526122	1.01348	-0.463637	0.863594	1.29886	1.5708	0	0	0.861845	-0.345365	0.660373	1.24726	1.5708	0	0
3.87	-0.7428	1.46417	2.28039	0.707352	0.668229	1.0093	-0.112303	-0.109238	-0.0321665	0.665399	-0.219055	0	0	0.35707	0.0966274	-0.185191	0.389075	-0.367357	0	0	-0.221469	-0.11471	0.0451938	1.01316	-0.455744	0.871591	1.29305	1.5708	0	0	0.846362	-0.351474	0.649457	1.25571	1.5708	0	0
3.88	-0.73297	1.46367	2.27112	0.705982	0.677027	1.0106	-0.097459	-0.109809	-0.0186641	0.700808	-0.241433	0	0	0.345559	0.0977617	-0.1886	0.383149	-0.36436	0	0	-0.218701	-0.110787	0.0376431	1.01262	-0.448572	0.878039	1.28811	1.5708	0	0	0.832626	-0.357041	0.639534	1.26364	1.5708	0	0
3.89	-0.730186	1.46398	2.2698	0.704622	0.685674	1.01192	-0.0825781	-0.109742	-0.00630677	0.737728	-0.261661	0	0	0.332707	0.0991445	-0.191661	0.376387	-0.361818	0	0	-0.217253	-0.107656	0.029924	1.01214	-0.442125	0.883717	1.28326	1.5708	0	0	0.821	-0.361819	0.631273	1.27006	1.5708	0	0
3.9	-0.733884	1.46532	2.27578	0.703273	0.694163	1.01325	-0.0672364	-0.109042	0.00500757	0.777298	-0.280891	0	0	0.318396	0.100531	-0.194297	0.368954	-0.359627	0	0	-0.217115	-0.104927	0.0224604	1.01211	-0.436709	0.889408	1.27835	1.5708	0	0	0.811886	-0.365781	0.625596	1.27451	1.5708	0	0
3.91	-0.744452	1.46788	2.2891	0.701986	0.702533	1.01459	-0.0517984	-0.1075	0.0159292	0.818833	-0.300284	0	0	0.302496	0.101671	-0.196572	0.361125	-0.357491	0	0	-0.21845	-0.10198	0.0157017	1.01179	-0.43203	0.893846	1.27357	1.5708	0	0	0.804977	-0.368929	0.622215	1.27714	1.5708	0	0
3.92	-0.759739	1.47121	2.30732	0.700763	0.710747	1.01592	-0.0364957	-0.104666	0.0273644	0.860638	-0.319444	0	0	0.285815	0.102462	-0.19833	0.353272	-0.355461	0	0	-0.220854	-0.0989545	0.00949886	1.01147	-0.427978	0.897482	1.26905	1.5708	0	0	0.79973	-0.37142	0.62018	1.27865	1.5708	0	0
3.93	-0.779573	1.4751	2.33033	0.699574	0.718808	1.01725	-0.0208861	-0.100952	0.0383984	0.902871	-0.339151	0	0	0.268359	0.103055	-0.199191	0.345031	-0.353662	0	0	-0.223946	-0.0959252	0.00353162	1.01169	-0.424464	0.90144	1.26432	1.5708	0	0	0.795955	-0.373493	0.619471	1.27902	1.5708	0	0
3.94	-0.803364	1.47955	2.35753	0.698367	0.726718	1.01858	-0.0047271	-0.0965882	0.048419	0.94509	-0.360027	0	0	0.250011	0.103405	-0.199117	0.335925	-0.352091	0	0	-0.227806	-0.092359	-0.00220927	1.01216	-0.421313	0.905065	1.25958	1.5708	0	0	0.793132	-0.37511	0.619501	1.27876	1.5708	0	0
3.95	-0.831077	1.48453	2.38877	0.697134	0.734489	1.01988	0.0119203	-0.0919836	0.0575594	0.986276	-0.377375	0	0	0.231157	0.10332	-0.199022	0.326509	-0.350725	0	0	-0.231994	-0.0882835	-0.00759164	1.01298	-0.418513	0.909054	1.25461	1.5708	0	0	0.791064	-0.376086	0.62019	1.27732	1.5708	0	0
3.96	-0.86351	1.48979	2.42478	0.695875	0.742117	1.02112	0.0291263	-0.0872652	0.0652976	1.02648	-0.387813	0	0	0.211988	0.103045	-0.19916	0.316491	-0.349355	0	0	-0.236626	-0.0841974	-0.0129265	1.015	-0.416205	0.914528	1.24936	1.5708	0	0	0.789429	-0.376914	0.620793	1.27561	1.5708	0	0
3.97	-0.895221	1.49506	2.46092	0.694575	0.749622	1.0223	0.046515	-0.0820847	0.0707532	1.06428	-0.388449	0	0	0.194067	0.10215	-0.199502	0.308404	-0.347932	0	0	-0.240923	-0.0799943	-0.017996	1.01666	-0.415058	0.919595	1.2445	1.5708	0	0	0.789184	-0.376663	0.622975	1.27241	1.5708	0	0
3.98	-0.926995	1.50025	2.49742	0.693288	0.757034	1.02338	0.0643513	-0.0765458	0.0743843	1.10045	-0.381958	0	0	0.176945	0.100803	-0.200659	0.301204	-0.345087	0	0	-0.244741	-0.0749879	-0.0222785	1.01854	-0.415111	0.92557	1.24031	1.5708	0	0	0.790113	-0.375818	0.627125	1.26793	1.5708	0	0
3.99	-0.970189	1.5059	2.54559	0.692028	0.764354	1.02453	0.0811131	-0.0706213	0.0765378	1.13342	-0.368789	0	0	0.15886	0.0992318	-0.201615	0.292971	-0.34628	0	0	-0.250031	-0.070319	-0.0265169	1.01696	-0.414444	0.923921	1.23708	1.5708	0	0	0.791686	-0.374561	0.63107	1.26402	1.5708	0	0
4	-1.01752	1.51173	2.59808	0.69077	0.771558	1.02567	0.0981434	-0.0647491	0.0765932	1.16431	-0.340708	0	0	0.14085	0.0972664	-0.201618	0.284433	-0.346012	0	0	-0.255588	-0.0656314	-0.0296415	1.01536	-0.416046	0.922405	1.23557	1.5708	0	0	0.795244	-0.372283	0.637237	1.25879	1.5708	0	0
4.01	-1.06786	1.51767	2.65361	0.689533	0.778669	1.0268	0.11599	-0.0591018	0.0751778	1.19178	-0.323952	0	0	0.123341	0.0945981	-0.201429	0.276298	-0.345526	0	0	-0.261125	-0.0605172	-0.0329634	1.0143	-0.417497	0.921242	1.23406	1.5708	0	0	0.79828	-0.369801	0.642012	1.25391	1.5708	0	0
4.02	-1.12861	1.5237	2.71945	0.68831	0.785708	1.02791	0.133843	-0.0534116	0.0735298	1.21525	-0.310213	0	0	0.105868	0.0914334	-0.200612	0.268123	-0.345382	0	0	-0.266803	-0.0552607	-0.0358927	1.01358	-0.4193	0.920133	1.23278	1.5708	0	0	0.801343	-0.366697	0.64638	1.24918	1.5708	0	0
4.03	-1.20224	1.52971	2.79767	0.6871	0.792648	1.02903	0.151903	-0.0473269	0.0739308	1.23485	-0.299917	0	0	0.0886493	0.0878897	-0.199532	0.259909	-0.345298	0	0	-0.27191	-0.0493827	-0.0379409	1.01343	-0.421062	0.920004	1.23055	1.5708	0	0	0.804655	-0.362481	0.650877	1.24324	1.5708	0	0
